<svg width="33" height="40" viewBox="0 0 33 40" fill="none" xmlns="http://www.w3.org/2000/svg">
<path d="M16.4679 6.01848C15.5764 6.01885 13.2913 6.15254 11.25 6.68507C10.8198 6.7973 10.2845 6.14278 9.53331 5.22416C8.36273 3.79273 6.66776 1.72003 4.02859 0.907978C1.87852 0.246414 1.67137 2.81034 1.58443 5.68521C1.51963 7.82798 1.89371 10.2849 2.15201 11.9813C2.31591 13.0578 2.43319 13.8281 2.36212 14.0176C2.36212 15.3394 1.95186 16.9942 1.56809 18.5421C1.20998 19.9865 0.874942 21.3379 0.917844 22.2388C1.06597 24.3127 1.68729 31.0829 5.13957 32.571C7.51584 33.5953 8.75896 34.3627 9.72139 34.9568C11.3683 35.9735 12.1933 36.4828 16.4679 36.9035V36.9038C16.4685 36.9038 16.4691 36.9037 16.4697 36.9036C16.4704 36.9037 16.471 36.9038 16.4716 36.9038V36.9035C20.7462 36.4828 21.5712 35.9735 23.2181 34.9568C24.1805 34.3627 25.4236 33.5953 27.7999 32.571C31.2522 31.0829 31.8735 24.3127 32.0217 22.2388C32.0646 21.3379 31.7295 19.9865 31.3714 18.5421C30.9876 16.9942 30.5774 15.3394 30.5774 14.0176C30.5063 13.8281 30.6236 13.0578 30.7875 11.9813C31.0458 10.2849 31.4199 7.82798 31.3551 5.68521C31.2681 2.81034 31.061 0.246414 28.9109 0.907978C26.2717 1.72003 24.5768 3.79273 23.4062 5.22416C22.655 6.14278 22.1197 6.7973 21.6895 6.68507C19.6481 6.15254 17.363 6.01885 16.4716 6.01848" fill="#FEF6EA"/>
<path fill-rule="evenodd" clip-rule="evenodd" d="M16.4716 5.79631H16.4679V6.01851L16.4677 5.57412C15.5539 5.5745 13.2348 5.70961 11.1481 6.25242C11.1407 6.25076 11.1257 6.24619 11.1013 6.23424C11.0362 6.2024 10.9429 6.13631 10.8163 6.01732C10.561 5.77754 10.2604 5.41129 9.8773 4.94288L9.85651 4.91745C8.69411 3.49593 6.927 1.33489 4.15926 0.483272C3.54178 0.293278 2.98704 0.314036 2.52461 0.589172C2.07607 0.856037 1.79735 1.31418 1.61484 1.81951C1.2547 2.8167 1.18313 4.25277 1.14022 5.67181C1.0742 7.85502 1.45312 10.3437 1.71016 12.0319L1.71266 12.0483C1.79508 12.5896 1.86394 13.0423 1.90376 13.3836C1.9237 13.5545 1.93513 13.6876 1.93812 13.7845C1.93985 13.841 1.93802 13.8712 1.93732 13.8827C1.93726 13.8836 1.93721 13.8844 1.93717 13.8851L1.91771 13.937L1.91771 14.0176C1.91771 15.2733 1.52497 16.8692 1.13673 18.4352L1.13496 18.4423C0.957206 19.1593 0.781705 19.8672 0.656403 20.5092C0.531619 21.1485 0.449854 21.7543 0.473932 22.26L0.474183 22.2653L0.474558 22.2705C0.549078 23.3138 0.74375 25.5623 1.36205 27.7457C1.67126 28.8376 2.09126 29.9312 2.66714 30.8555C3.24279 31.7794 3.99051 32.5597 4.96365 32.9791C7.31002 33.9905 8.53259 34.7452 9.48527 35.3333L9.48535 35.3334L9.50121 35.3432C10.3179 35.8474 10.9748 36.2529 11.9721 36.5764C12.8351 36.8563 13.9401 37.0713 15.624 37.2615C16.021 37.299 16.809 37.3112 17.3231 37.2606C19.0027 37.0707 20.1057 36.8559 20.9673 36.5764C21.9647 36.2529 22.6215 35.8474 23.4382 35.3432L23.4541 35.3334C24.4068 34.7453 25.6294 33.9905 27.9758 32.9791C28.9489 32.5597 29.6967 31.7794 30.2723 30.8555C30.8482 29.9312 31.2682 28.8376 31.5774 27.7457C32.1957 25.5623 32.3904 23.3138 32.4649 22.2705L32.4653 22.2653L32.4655 22.26C32.4896 21.7543 32.4078 21.1485 32.2831 20.5092C32.1578 19.8672 31.9823 19.1593 31.8045 18.4424L31.8027 18.4352C31.4145 16.8692 31.0217 15.2733 31.0217 14.0176V13.937L31.0023 13.8851L31.0021 13.8828C31.0014 13.8712 30.9996 13.841 31.0013 13.7845C31.0043 13.6876 31.0158 13.5545 31.0357 13.3836C31.0755 13.0423 31.1444 12.5896 31.2268 12.0483L31.2293 12.0319C31.4863 10.3437 31.8653 7.85502 31.7992 5.67181C31.7563 4.25277 31.6847 2.8167 31.3246 1.81951C31.1421 1.31418 30.8634 0.856037 30.4148 0.589172C29.9524 0.314036 29.3977 0.293278 28.7802 0.483272C26.0125 1.33489 24.2453 3.49592 23.0829 4.91745L23.0622 4.94288C22.6791 5.41129 22.3784 5.77754 22.1232 6.01732C21.9965 6.13631 21.9032 6.2024 21.8382 6.23424C21.8138 6.24619 21.7988 6.25076 21.7914 6.25242C19.7047 5.70961 17.3855 5.5745 16.4718 5.57412L16.4716 6.01851V5.79631ZM16.4716 6.01851C17.363 6.01888 19.6481 6.15257 21.6895 6.6851C22.1197 6.79733 22.655 6.14281 23.4062 5.2242C24.5767 3.79276 26.2717 1.72007 28.9109 0.908014C31.061 0.246449 31.2681 2.81038 31.355 5.68525C31.4198 7.82801 31.0458 10.2849 30.7875 11.9814C30.6236 13.0578 30.5063 13.8281 30.5774 14.0176C30.5774 15.3394 30.9876 16.9942 31.3714 18.5421L31.3714 18.5422C31.7295 19.9866 32.0645 21.3379 32.0216 22.2388C31.8735 24.3127 31.2522 31.083 27.7999 32.571C25.4237 33.5953 24.1805 34.3627 23.2181 34.9568L23.2181 34.9568C21.6294 35.9376 20.8055 36.4462 16.9123 36.8585C16.7696 36.8736 16.6227 36.8886 16.4716 36.9035V36.9039L16.4697 36.9037L16.4679 36.9039L16.4679 36.9036C16.3167 36.8888 16.1699 36.8736 16.0272 36.8585C12.1339 36.4462 11.31 35.9376 9.72137 34.9568C8.75894 34.3627 7.51582 33.5953 5.13955 32.571C1.68727 31.083 1.06595 24.3127 0.917822 22.2388C0.87492 21.3379 1.20996 19.9865 1.56807 18.5421C1.95184 16.9942 2.3621 15.3394 2.3621 14.0176C2.43316 13.8281 2.31589 13.0578 2.15199 11.9814C1.89369 10.2849 1.51961 7.82801 1.58441 5.68525C1.67135 2.81038 1.8785 0.246449 4.02857 0.908014C6.66774 1.72007 8.36271 3.79276 9.53329 5.2242L9.53329 5.2242C10.2845 6.14282 10.8197 6.79733 11.25 6.6851C13.2913 6.15257 15.5764 6.01888 16.4679 6.01851H16.4716ZM21.7861 6.25317C21.7858 6.25321 21.7857 6.25324 21.7857 6.25326C21.7856 6.25332 21.7864 6.25332 21.7879 6.25308C21.7871 6.25309 21.7864 6.25313 21.7861 6.25317ZM11.1538 6.25327C11.1538 6.25332 11.1531 6.25332 11.1515 6.25308C11.153 6.25309 11.1538 6.25321 11.1538 6.25327Z" fill="black"/>
<mask id="mask0_9_143" style="mask-type:alpha" maskUnits="userSpaceOnUse" x="0" y="0" width="33" height="37">
<path d="M11.25 6.5964C13.2942 6.07117 15.5828 5.93986 16.4716 5.93986V36.3597C9.6946 35.7031 11.5833 34.8277 5.13957 32.0921C1.68729 30.6265 1.06597 23.9583 0.917844 21.9157C0.828965 20.0774 2.36212 16.3351 2.36212 13.8184C2.54517 13.3376 1.47851 9.06127 1.58443 5.61162C1.67137 2.78008 1.87852 0.254801 4.02859 0.906393C8.36142 2.21948 10.1494 6.87919 11.25 6.5964Z" fill="#FFFCF9" fill-opacity="0.94"/>
<path d="M21.6895 6.5964C19.6453 6.07117 17.3566 5.93986 16.4678 5.93986V36.3597C23.2448 35.7031 21.3562 34.8277 27.7999 32.0921C31.2522 30.6265 31.8735 23.9583 32.0216 21.9157C32.1105 20.0774 30.5773 16.3351 30.5773 13.8184C30.3943 13.3376 31.4609 9.06127 31.355 5.61162C31.2681 2.78008 31.0609 0.254801 28.9109 0.906393C24.578 2.21948 22.7901 6.87919 21.6895 6.5964Z" fill="#FFFCF9" fill-opacity="0.94"/>
</mask>
<g mask="url(#mask0_9_143)">
<path d="M12.1553 26.6295C11.6296 26.4571 9.80855 26.2872 7.68573 21.8106C6.31689 19.1534 3.39596 18.9076 2.10302 19.9696C1.41517 20.5347 1.09906 21.061 0.401146 21.2758L-0.75061 22.462V13.8509L0.932948 0.360199L13.8713 1.12563L16.4795 5.47601V25.4976C15.9803 25.4976 14.882 25.4367 13.8713 25.9739C12.8909 26.4949 12.7006 26.6295 12.1553 26.6295Z" fill="#E9A357"/>
<path d="M20.7958 26.6295C21.3215 26.4571 23.1426 26.2872 25.2654 21.8106C26.6342 19.1534 29.5552 18.9076 30.8481 19.9696C31.5359 20.5347 31.8521 21.061 32.55 21.2758L33.7017 22.462V13.8509L32.0182 0.360199L19.0799 1.12563L16.4716 5.47601V25.4976C16.9709 25.4976 18.0691 25.4367 19.0799 25.9739C20.0602 26.4949 20.2506 26.6295 20.7958 26.6295Z" fill="#E9A357"/>
</g>
<mask id="mask1_9_143" style="mask-type:alpha" maskUnits="userSpaceOnUse" x="0" y="0" width="33" height="37">
<path d="M16.4679 6.01848C15.5764 6.01885 13.2913 6.15254 11.25 6.68507C10.8198 6.7973 10.2845 6.14278 9.53331 5.22416C8.36273 3.79273 6.66776 1.72003 4.02859 0.907978C1.87852 0.246414 1.67137 2.81034 1.58443 5.68521C1.51963 7.82798 1.89371 10.2849 2.15201 11.9813C2.31591 13.0578 2.43319 13.8281 2.36212 14.0176C2.36212 15.3394 1.95186 16.9942 1.56809 18.5421C1.20998 19.9865 0.874942 21.3379 0.917844 22.2388C1.06597 24.3127 1.68729 31.0829 5.13957 32.571C7.51584 33.5953 8.75896 34.3627 9.72139 34.9568C11.3683 35.9735 12.1933 36.4828 16.4679 36.9035V36.9038C16.4685 36.9038 16.4691 36.9037 16.4697 36.9036C16.4704 36.9037 16.471 36.9038 16.4716 36.9038V36.9035C20.7462 36.4828 21.5712 35.9735 23.2181 34.9568C24.1805 34.3627 25.4236 33.5953 27.7999 32.571C31.2522 31.0829 31.8735 24.3127 32.0217 22.2388C32.0646 21.3379 31.7295 19.9865 31.3714 18.5421C30.9876 16.9942 30.5774 15.3394 30.5774 14.0176C30.5063 13.8281 30.6236 13.0578 30.7875 11.9813C31.0458 10.2849 31.4199 7.82798 31.3551 5.68521C31.2681 2.81034 31.061 0.246414 28.9109 0.907978C26.2717 1.72003 24.5768 3.79273 23.4062 5.22416C22.655 6.14278 22.1197 6.7973 21.6895 6.68507C19.6481 6.15254 17.363 6.01885 16.4716 6.01848" fill="#FEF6EA"/>
</mask>
<g mask="url(#mask1_9_143)">
<g filter="url(#filter0_f_9_143)">
<path d="M17.3341 38.1618L12.6216 33.6109H17.0918L13.8065 29.5716L19.7577 28.0367L25.9513 34.2033L25.3588 36.6808L17.3341 38.1618Z" fill="black" fill-opacity="0.1"/>
</g>
</g>
<g opacity="0.1" filter="url(#filter1_f_9_143)">
<path d="M12.7832 33.4224V27.6597H20.027L19.8654 33.4224L18.3305 33.7994L15.5838 33.961L12.7832 33.4224Z" fill="#070707"/>
</g>
<path d="M8.58362 9.68478C8.31698 10.4847 6.54681 12.1289 5.69506 12.7955C4.47298 13.7519 3.13981 13.351 2.91761 9.46259C2.60184 3.93672 2.9176 2.1301 4.02859 2.57449C5.13957 3.01888 7.25044 4.68536 8.02812 5.79634C9.15528 7.40657 8.91691 8.6849 8.58362 9.68478Z" fill="#FEF6EA"/>
<path d="M24.1869 9.68478C24.4535 10.4847 26.2237 12.1289 27.0755 12.7955C28.2975 13.7519 29.6307 13.351 29.8529 9.46259C30.1687 3.93672 29.8529 2.1301 28.7419 2.57449C27.6309 3.01888 25.5201 4.68536 24.7424 5.79634C23.6152 7.40657 23.8536 8.6849 24.1869 9.68478Z" fill="#FEF6EA"/>
<path d="M12.4721 18.6838C10.6945 17.2395 8.91696 17.5728 8.25037 19.017C9.25025 21.239 11.3506 21.1508 12.1283 21.0398C12.6635 20.9633 12.9301 21.0398 13.0276 20.9057C13.2868 20.6835 13.4048 19.4416 12.4721 18.6838Z" fill="#020202"/>
<ellipse cx="11.5227" cy="19.2635" rx="0.466639" ry="0.495805" fill="#FCFCFC"/>
<path d="M20.1378 18.6838C21.9153 17.2395 23.6929 17.5728 24.3595 19.017C23.3596 21.239 21.2593 21.1508 20.4816 21.0398C19.9464 20.9633 19.6797 21.0398 19.5823 20.9057C19.323 20.6835 19.2051 19.4416 20.1378 18.6838Z" fill="#020202"/>
<ellipse rx="0.466639" ry="0.495805" transform="matrix(-1 0 0 1 21.0873 19.2635)" fill="#FCFCFC"/>
<path d="M20.4444 18.6838C22.222 17.2395 23.9995 17.5728 24.6661 19.017C23.6663 21.239 21.5659 21.1508 20.7882 21.0398C20.253 20.9633 19.9864 21.0398 19.8889 20.9057C19.6297 20.6835 19.5117 19.4416 20.4444 18.6838Z" fill="#020202"/>
<ellipse rx="0.466639" ry="0.495805" transform="matrix(-1 0 0 1 21.3939 19.2635)" fill="#FCFCFC"/>
<path d="M20.0824 27.6827C20.4161 26.5587 17.889 25.794 16.3883 25.794V30.7935C18.5817 30.7935 19.6206 29.2381 20.0824 27.6827Z" fill="#020202"/>
<path d="M12.7242 27.6827C12.3905 26.5587 14.9176 25.794 16.4183 25.794V30.7935C14.225 30.7935 13.186 29.2381 12.7242 27.6827Z" fill="#020202"/>
<path d="M16.4563 35.0477V32.0466C14.5605 32.0466 14.1004 32.397 12.4087 31.3348C10.5896 30.1926 10.9584 31.0921 11.6744 32.2106C12.4631 33.5628 15.4041 35.1146 16.4563 35.0477Z" fill="#0B0B0B"/>
<path d="M16.4186 35.0477V32.0466C18.3144 32.0466 18.7746 32.397 20.4662 31.3348C22.2853 30.1926 21.9165 31.0921 21.2006 32.2106C20.4118 33.5628 17.4708 35.1146 16.4186 35.0477Z" fill="#0B0B0B"/>
<g opacity="0.07" filter="url(#filter2_f_9_143)">
<path d="M12.6221 24.7906C12.1042 25.7079 12.044 25.7247 11.421 26.3752C12.732 27.0104 13.151 26.1995 14.1647 25.794C15.243 25.4417 15.7519 25.4966 16.4508 25.4966V22.834C15.0297 23.0233 13.124 23.9018 12.6221 24.7906Z" fill="#323232"/>
<path d="M20.3003 24.7907C20.8182 25.7079 20.8784 25.7248 21.5014 26.3752C20.1904 27.0104 19.7714 26.1995 18.7577 25.794C17.6794 25.4417 17.1705 25.4967 16.4716 25.4967V22.8341C17.8927 23.0233 19.7984 23.9018 20.3003 24.7907Z" fill="#323232"/>
</g>
<path d="M16.4755 33.5447C16.5253 33.3493 16.7428 33.1589 17.4297 33.2202C18.21 33.2898 18.5289 33.1945 18.7257 33.3091C18.8953 33.4079 18.9742 33.6627 19.1796 34.3138C19.6886 36.1456 19.8596 39.7643 16.4755 39.5946C13.0915 39.7643 13.2625 36.1456 13.7715 34.3138C13.9769 33.6627 14.0557 33.4079 14.2254 33.3091C14.4221 33.1945 14.7411 33.2898 15.5213 33.2202C16.2082 33.1589 16.4257 33.3493 16.4755 33.5447Z" fill="#F48C8B" stroke="#0B0B0B" stroke-width="0.2"/>
<path d="M16.58 33.55H16.38L16.4681 39.2232L16.5348 37.8062L16.58 33.55Z" fill="#0B0B0B"/>
<g opacity="0.1" filter="url(#filter3_f_9_143)">
<path d="M14 36.3049L14.5895 33.1255C15.5965 32.9489 17.7727 32.8227 18.4212 33.7311C19.7107 40.6198 18.7527 36.6834 16.4685 37.7432C14.6411 38.5911 14.0614 37.1376 14 36.3049Z" fill="black"/>
<path d="M14 36.3049L14.5895 33.1255C15.5965 32.9489 17.7727 32.8227 18.4212 33.7311C19.7107 40.6198 18.7527 36.6834 16.4685 37.7432C14.6411 38.5911 14.0614 37.1376 14 36.3049Z" stroke="black"/>
</g>
<g opacity="0.15" filter="url(#filter4_f_9_143)">
<path d="M13.98 33.9062L14.5695 32.7115C15.5765 32.6451 17.7527 32.5977 18.4011 32.9391C19.6906 35.5275 18.7327 34.0484 16.4485 34.4466C14.6211 34.7652 14.0414 34.2191 13.98 33.9062Z" fill="black"/>
<path d="M13.98 33.9062L14.5695 32.7115C15.5765 32.6451 17.7527 32.5977 18.4011 32.9391C19.6906 35.5275 18.7327 34.0484 16.4485 34.4466C14.6211 34.7652 14.0414 34.2191 13.98 33.9062Z" stroke="black"/>
</g>
<defs>
<filter id="filter0_f_9_143" x="11.6216" y="27.0367" width="15.3297" height="12.1251" filterUnits="userSpaceOnUse" color-interpolation-filters="sRGB">
<feFlood flood-opacity="0" result="BackgroundImageFix"/>
<feBlend mode="normal" in="SourceGraphic" in2="BackgroundImageFix" result="shape"/>
<feGaussianBlur stdDeviation="0.5" result="effect1_foregroundBlur_9_143"/>
</filter>
<filter id="filter1_f_9_143" x="11.7832" y="26.6597" width="9.24377" height="8.30127" filterUnits="userSpaceOnUse" color-interpolation-filters="sRGB">
<feFlood flood-opacity="0" result="BackgroundImageFix"/>
<feBlend mode="normal" in="SourceGraphic" in2="BackgroundImageFix" result="shape"/>
<feGaussianBlur stdDeviation="0.5" result="effect1_foregroundBlur_9_143"/>
</filter>
<filter id="filter2_f_9_143" x="10.421" y="21.834" width="12.0804" height="5.77594" filterUnits="userSpaceOnUse" color-interpolation-filters="sRGB">
<feFlood flood-opacity="0" result="BackgroundImageFix"/>
<feBlend mode="normal" in="SourceGraphic" in2="BackgroundImageFix" result="shape"/>
<feGaussianBlur stdDeviation="0.5" result="effect1_foregroundBlur_9_143"/>
</filter>
<filter id="filter3_f_9_143" x="12.4966" y="31.5" width="8.00348" height="8.00003" filterUnits="userSpaceOnUse" color-interpolation-filters="sRGB">
<feFlood flood-opacity="0" result="BackgroundImageFix"/>
<feBlend mode="normal" in="SourceGraphic" in2="BackgroundImageFix" result="shape"/>
<feGaussianBlur stdDeviation="0.5" result="effect1_foregroundBlur_9_143"/>
</filter>
<filter id="filter4_f_9_143" x="12.4568" y="31.1643" width="8.02319" height="4.87875" filterUnits="userSpaceOnUse" color-interpolation-filters="sRGB">
<feFlood flood-opacity="0" result="BackgroundImageFix"/>
<feBlend mode="normal" in="SourceGraphic" in2="BackgroundImageFix" result="shape"/>
<feGaussianBlur stdDeviation="0.5" result="effect1_foregroundBlur_9_143"/>
</filter>
</defs>
</svg>
